<?xml version="1.0" standalone="no"?>
<!DOCTYPE svg PUBLIC "-//W3C//DTD SVG 20010904//EN"
 "http://www.w3.org/TR/2001/REC-SVG-20010904/DTD/svg10.dtd">
<svg version="1.0" xmlns="http://www.w3.org/2000/svg"
 width="612.000000pt" height="612.000000pt" viewBox="0 0 612.000000 612.000000"
 preserveAspectRatio="xMidYMid meet">
<metadata>
Created by potrace 1.14, written by Peter Selinger 2001-2017
</metadata>
<g transform="translate(0.000000,612.000000) scale(0.100000,-0.100000)"
fill="#000000" stroke="none">
<path d="M3148 5495 c-2 -2 -15 -6 -28 -8 -31 -5 -57 -14 -92 -33 -14 -8 -33
-14 -42 -14 -9 0 -16 -3 -16 -7 0 -5 -27 -24 -60 -43 -62 -37 -96 -83 -83
-116 5 -13 3 -15 -7 -9 -10 6 -12 -2 -6 -41 9 -63 9 -64 2 -94 -17 -73 -20
-154 -10 -298 4 -50 2 -78 -7 -88 -13 -16 -16 -201 -3 -257 4 -18 8 -43 9 -57
1 -14 8 -52 16 -85 7 -33 13 -62 14 -65 6 -30 52 -104 88 -141 24 -25 47 -54
50 -63 4 -9 17 -20 30 -25 48 -18 55 -54 20 -98 -12 -16 -40 -53 -62 -83 -22
-30 -45 -60 -51 -67 -5 -7 -10 -23 -10 -37 0 -24 -44 -66 -69 -66 -6 0 -11 -4
-11 -9 0 -5 -9 -13 -20 -16 -11 -3 -26 -12 -33 -18 -20 -19 -113 -67 -129 -67
-8 0 -33 -14 -54 -30 -21 -17 -63 -46 -93 -66 -29 -20 -56 -45 -58 -55 -3 -10
-9 -19 -13 -19 -8 0 -45 -74 -74 -150 -10 -25 -29 -70 -43 -100 -25 -55 -28
-64 -43 -135 -5 -22 -21 -80 -35 -130 -15 -49 -36 -124 -47 -165 -11 -41 -22
-77 -24 -79 -3 -3 -22 -4 -43 -3 -50 3 -65 -16 -66 -82 0 -48 -1 -51 -25 -50
-36 2 -73 -41 -65 -75 4 -14 7 -30 8 -35 1 -5 -10 -16 -26 -23 -24 -12 -27
-19 -25 -58 1 -28 -4 -49 -14 -59 -17 -17 -14 -81 4 -104 6 -6 7 -12 3 -12 -4
0 -2 -6 4 -14 7 -8 8 -17 3 -20 -6 -3 -13 -18 -17 -33 -3 -16 -22 -51 -41 -79
-57 -87 -52 -139 33 -341 34 -79 64 -114 103 -120 8 -1 26 -4 40 -6 125 -21
206 -28 277 -22 46 3 87 3 93 0 6 -4 4 -18 -6 -37 -25 -48 -28 -135 -10 -234
17 -96 16 -126 -8 -150 -9 -8 -16 -18 -16 -22 -1 -4 -4 -25 -7 -47 -8 -48 -8
-148 1 -229 l6 -59 -47 -46 c-44 -42 -50 -55 -71 -136 -12 -50 -38 -144 -57
-210 -27 -91 -36 -144 -39 -220 -3 -55 -8 -108 -11 -117 -7 -17 42 -18 948
-18 l956 0 -1 42 c0 24 -3 48 -7 53 -9 16 -9 75 0 81 5 3 7 9 4 13 -2 5 -7 26
-9 48 -3 22 -10 52 -15 67 -6 14 -9 26 -6 26 2 0 -8 39 -22 88 -13 48 -26 94
-27 102 -1 9 -5 21 -9 27 -4 7 0 21 9 32 26 29 62 120 69 171 4 25 17 77 30
117 26 77 25 125 -1 154 -17 18 -134 79 -153 79 -17 0 -13 25 14 91 21 53 24
71 19 145 -4 68 -1 93 15 132 104 254 115 305 130 615 1 10 5 16 9 13 19 -12
113 215 128 309 3 22 17 54 30 72 13 17 31 60 40 94 9 34 33 94 54 133 20 39
41 85 45 101 4 17 9 39 12 50 26 107 24 160 -11 262 -10 32 -16 71 -13 99 3
41 -4 97 -28 209 -11 56 -55 133 -95 165 -21 17 -50 42 -63 53 -14 12 -42 36
-63 52 -34 27 -82 69 -154 134 -45 41 -107 80 -135 85 -16 3 -31 9 -35 13 -7
8 -29 102 -35 147 -7 53 -14 57 -83 55 l-66 -2 -9 33 c-10 41 -5 89 18 158 15
46 35 70 35 42 0 -18 46 -10 78 14 88 64 144 184 128 270 -9 45 -28 60 -89 65
-5 1 -6 13 -3 29 4 15 9 38 12 52 10 48 12 240 2 240 -5 0 -6 5 -3 10 4 6 3
19 -1 28 -12 28 -15 46 -15 75 1 15 -3 27 -9 27 -5 0 -6 7 -3 17 4 11 3 14 -5
9 -7 -4 -12 -1 -12 9 0 8 -7 18 -15 21 -8 4 -15 12 -15 20 0 8 -3 14 -8 14 -9
0 -38 61 -34 73 1 5 -2 6 -7 3 -5 -4 -11 -3 -13 2 -8 19 -78 63 -89 56 -8 -4
-9 -3 -5 4 4 7 2 12 -4 12 -6 0 -27 11 -47 25 -20 13 -40 22 -45 19 -4 -3 -8
-1 -8 5 0 5 -8 8 -17 6 -10 -1 -29 2 -43 7 -14 5 -34 12 -45 14 -27 7 -192 14
-197 9z"/>
<path d="M3627 5379 c7 -7 15 -10 18 -7 3 3 -2 9 -12 12 -14 6 -15 5 -6 -5z"/>
</g>
</svg>
